# xmcd CD database file
#
# Track frame offsets:
#	150
#	10490
#	23520
#	37605
#	48970
#	61440
#	74617
#	88057
#	101154
#	114920
#	127252
#	148395
#	163987
#	179627
#	197230
#	215237
#	231200
#	254657
#	269270
#
# Disc length: 3782 seconds
#
# Revision: 0
# Processed by: cddbd v1.5.1PL0 Copyright (c) Steve Scherf et al.
# Submitted via: CDex 1.50beta10
#
DISCID=2b0ec413
DTITLE=Muddy Waters - Sings "Big Bill" - Folk Singer
DYEAR=1998
DGENRE=Blues
TTITLE0=Tell Me Baby
TTITLE1=Southbound Train
TTITLE2=When I Get To Thinking
TTITLE3=Just A Dream On My Mind
TTITLE4=Double Trouble
TTITLE5=I Feel So Good
TTITLE6=Baby, I Done Got Wise
TTITLE7=Mopper's Blues
TTITLE8=Lonesome Road Blues
TTITLE9=Hey, Hey
TTITLE10=Cold Weather Blues
TTITLE11=Big Leg Woman
TTITLE12=Country Boy
TTITLE13=Feel Like Going Home
TTITLE14=My Home Is In The Delta
TTITLE15=Long Distance
TTITLE16=My Captain
TTITLE17=Good Morning Little School Girl
TTITLE18=You Gonna Need My Help
EXTD=YEAR: 1998
EXTT0=
EXTT1=
EXTT2=
EXTT3=
EXTT4=
EXTT5=
EXTT6=
EXTT7=
EXTT8=
EXTT9=
EXTT10=
EXTT11=
EXTT12=
EXTT13=
EXTT14=
EXTT15=
EXTT16=
EXTT17=
EXTT18=
PLAYORDER=
